<?xml version="1.0" encoding="UTF-8"?>
<!DOCTYPE svg PUBLIC "-//W3C//DTD SVG 1.1//EN" "http://www.w3.org/Graphics/SVG/1.1/DTD/svg11.dtd">
<!-- Creator: CorelDRAW 2019 -->
<svg xmlns="http://www.w3.org/2000/svg" xml:space="preserve" width="400px" height="100px" version="1.1" style="shape-rendering:geometricPrecision; text-rendering:geometricPrecision; image-rendering:optimizeQuality; fill-rule:evenodd; clip-rule:evenodd"
viewBox="0 0 400 99.87"
 xmlns:xlink="http://www.w3.org/1999/xlink"
 xmlns:xodm="http://www.corel.com/coreldraw/odm/2003">
 <defs>
  <style type="text/css">
   <![CDATA[
    .fil1 {fill:#F4F4F4}
    .fil0 {fill:#FC6D6D}
   ]]>
  </style>
 </defs>
 <g id="Слой_x0020_1">
  <metadata id="CorelCorpID_0Corel-Layer"/>
  <path class="fil0" d="M132.15 27.49c-1.91,0.79 -3.05,2.85 -3.05,5.54 0,1.7 3.13,5.61 16.96,21.44 9.38,10.72 17.61,19.66 18.39,19.95 0.71,0.27 2.13,0.13 3.05,-0.37 3.34,-1.63 3.48,-2.9 3.27,-25.26l-0.14 -20.94 -5.11 -0.21 -5.18 -0.21 0 12.77c0,7.16 -0.29,12.91 -0.64,13.2 -0.43,0.22 -5.47,-5.18 -11.36,-12 -9.58,-11.13 -13.14,-14.69 -14.27,-14.55 -0.21,0 -1.06,0.29 -1.92,0.64l0 0 0 0z"/>
  <path class="fil1" d="M354.81 27.71c-1.41,0.71 -3.55,4.97 -10.79,21.79 -4.97,11.5 -9.29,21.79 -9.72,22.86l-0.71 1.98 6.17 0 6.18 0 5.32 -12.49c2.91,-6.89 5.61,-12.57 5.89,-12.64 0.36,0 3.05,5.61 5.96,12.5l5.4 12.63 5.96 0c3.19,0 5.89,-0.21 5.89,-0.56 0,-1.36 -18.66,-43.94 -19.73,-44.93 -1.77,-1.78 -3.83,-2.14 -5.82,-1.14l0 0 0 0z"/>
  <path class="fil1" d="M25.47 27.99c0,0.36 4.2,10.36 9.23,22.22 10.65,24.91 12.14,27.04 16.82,23.78 1.28,-0.93 7.24,-14.2 19.87,-44.23l0.93 -2.27 -5.96 0 -5.96 0 -5.61 13.13c-2.98,7.25 -5.75,13.07 -6.1,12.92 -0.36,-0.06 -3.06,-5.89 -6.11,-12.92l-5.46 -12.77 -5.82 -0.21c-3.2,-0.15 -5.83,0.07 -5.83,0.35z"/>
  <polygon class="fil1" points="83.32,29.27 81.55,30.97 81.55,50.92 81.55,70.86 83.32,72.57 85.03,74.34 101.77,74.34 118.46,74.34 118.46,69.02 118.46,63.7 105.68,63.7 92.91,63.7 92.91,60.14 92.91,56.59 104.61,56.59 116.32,56.59 116.32,50.92 116.32,45.24 104.61,45.24 92.91,45.24 92.91,41.69 92.91,38.14 105.68,38.14 118.46,38.14 118.46,32.82 118.46,27.49 101.77,27.49 85.03,27.49 "/>
  <path class="fil1" d="M183.12 28.85c-1.42,1.41 -1.49,2.12 -1.49,22.07 0,19.94 0.07,20.65 1.49,22.08 1.42,1.42 2.06,1.42 13.27,1.2 10.57,-0.21 12.21,-0.36 15.12,-1.84 10.01,-4.9 15.47,-15.34 13.41,-25.56 -1.63,-7.95 -5.61,-13.13 -12.99,-16.96 -3.54,-1.92 -4.25,-1.99 -15.54,-2.2 -11.21,-0.21 -11.85,-0.21 -13.27,1.21l0 0 0 0zm24.34 11.07c8.24,3.9 8.88,16.25 1.14,21.36 -2.63,1.78 -3.55,1.99 -9.44,1.99l-6.54 0.07 -0.21 -11.71c-0.06,-6.39 0,-12.14 0.21,-12.7 0.58,-1.42 11.29,-0.72 14.84,0.99l0 0z"/>
  <path class="fil1" d="M236.7 28.99l-1.84 1.41 0 20.59c0,19.59 0.07,20.58 1.42,21.93 1.35,1.35 2.34,1.42 18.1,1.42l16.68 0 0 -5.32 0 -5.32 -12.78 0 -12.77 0 0 -3.56 0 -3.55 11.71 0 11.71 0 0 -5.67 0 -5.68 -11.71 0 -11.71 0 0 -3.55 0 -3.55 12.77 0 12.78 0 0 -5.32 0 -5.33 -16.26 0c-15.33,0 -16.32,0.08 -18.09,1.5l0 0 -0.01 0z"/>
  <path class="fil1" d="M289.94 49.64c10.08,23.56 11.5,25.98 15.11,25.05 1,-0.21 2.2,-0.85 2.7,-1.28 0.64,-0.63 16.4,-36.48 19.45,-44.35 0.57,-1.57 0.57,-1.57 -5.32,-1.57l-5.97 0 -5.46 12.92c-3.05,7.17 -5.75,13.21 -6.04,13.56 -0.27,0.29 -3.05,-5.46 -6.17,-12.77l-5.68 -13.35 -6.1 -0.21 -6.04 -0.21 9.52 22.21 0 0 0 0z"/>
  <path class="fil1" d="M129.1 60l0 14.34 5.33 0 5.32 0 0 -8.31 0 -8.22 -4.4 -5.05c-2.42,-2.76 -4.75,-5.53 -5.32,-6.1 -0.79,-0.85 -0.93,1.34 -0.93,13.34z"/>
 </g>
 <g id="Слой_x0020_1_0">
  <metadata id="CorelCorpID_1Corel-Layer"/>
 </g>
</svg>
