<?xml version="1.0" encoding="UTF-8"?>
<!DOCTYPE svg PUBLIC "-//W3C//DTD SVG 1.1//EN" "http://www.w3.org/Graphics/SVG/1.1/DTD/svg11.dtd">
<!-- Creator: CorelDRAW 2019 -->
<svg xmlns="http://www.w3.org/2000/svg" xml:space="preserve" width="400px" height="100px" version="1.1" style="shape-rendering:geometricPrecision; text-rendering:geometricPrecision; image-rendering:optimizeQuality; fill-rule:evenodd; clip-rule:evenodd"
viewBox="0 0 400 100"
 xmlns:xlink="http://www.w3.org/1999/xlink"
 xmlns:xodm="http://www.corel.com/coreldraw/odm/2003">
 <defs>
  <style type="text/css">
   <![CDATA[
    .fil1 {fill:#033772}
    .fil0 {fill:#FC6D6D}
   ]]>
  </style>
 </defs>
 <g id="Слой_x0020_1">
  <metadata id="CorelCorpID_0Corel-Layer"/>
  <path class="fil0" d="M128.29 26.58c-2.01,0.82 -3.2,2.98 -3.2,5.81 0,1.78 3.28,5.88 17.79,22.48 9.83,11.24 18.46,20.62 19.28,20.92 0.75,0.29 2.24,0.14 3.2,-0.38 3.5,-1.71 3.65,-3.05 3.43,-26.5l-0.15 -21.96 -5.36 -0.22 -5.43 -0.22 0 13.4c0,7.51 -0.3,13.54 -0.67,13.84 -0.45,0.23 -5.74,-5.43 -11.91,-12.58 -10.05,-11.68 -13.78,-15.41 -14.97,-15.26 -0.22,0 -1.11,0.3 -2.01,0.67l0 0z"/>
  <path class="fil1" d="M361.8 26.81c-1.48,0.74 -3.72,5.21 -11.31,22.85 -5.21,12.06 -9.75,22.85 -10.2,23.97l-0.74 2.08 6.47 0 6.48 0 5.58 -13.1c3.05,-7.22 5.88,-13.18 6.18,-13.25 0.37,0 3.2,5.88 6.25,13.1l5.66 13.25 6.25 0c3.35,0 6.18,-0.22 6.18,-0.59 0,-1.42 -19.57,-46.08 -20.69,-47.12 -1.86,-1.86 -4.02,-2.24 -6.11,-1.19l0 0z"/>
  <path class="fil1" d="M16.41 27.1c0,0.38 4.4,10.87 9.68,23.3 11.17,26.13 12.73,28.36 17.64,24.94 1.34,-0.97 7.59,-14.89 20.84,-46.38l0.97 -2.38 -6.25 0 -6.25 0 -5.88 13.77c-3.13,7.6 -6.03,13.7 -6.4,13.55 -0.38,-0.07 -3.21,-6.18 -6.41,-13.55l-5.73 -13.4 -6.1 -0.22c-3.35,-0.15 -6.11,0.08 -6.11,0.37z"/>
  <polygon class="fil1" points="77.08,28.44 75.22,30.23 75.22,51.15 75.22,72.06 77.08,73.85 78.87,75.71 96.43,75.71 113.93,75.71 113.93,70.13 113.93,64.55 100.53,64.55 87.13,64.55 87.13,60.82 87.13,57.1 99.41,57.1 111.69,57.1 111.69,51.15 111.69,45.19 99.41,45.19 87.13,45.19 87.13,41.47 87.13,37.75 100.53,37.75 113.93,37.75 113.93,32.17 113.93,26.58 96.43,26.58 78.87,26.58 77.08,28.44 "/>
  <path class="fil1" d="M181.74 28c-1.49,1.48 -1.56,2.23 -1.56,23.15 0,20.91 0.07,21.66 1.56,23.15 1.49,1.49 2.16,1.49 13.92,1.26 11.09,-0.22 12.8,-0.37 15.86,-1.93 10.49,-5.14 16.22,-16.08 14.06,-26.8 -1.71,-8.34 -5.88,-13.77 -13.62,-17.79 -3.72,-2.01 -4.46,-2.09 -16.3,-2.31 -11.76,-0.22 -12.43,-0.22 -13.92,1.27l0 0zm25.53 11.61c8.64,4.09 9.31,17.04 1.19,22.4 -2.75,1.87 -3.72,2.09 -9.9,2.09l-6.85 0.07 -0.22 -12.28c-0.07,-6.7 0,-12.73 0.22,-13.32 0.6,-1.49 11.84,-0.75 15.56,1.04l0 0z"/>
  <path class="fil1" d="M237.94 28.15l-1.93 1.48 0 21.59c0,20.55 0.07,21.59 1.48,23 1.42,1.42 2.46,1.49 18.99,1.49l17.49 0 0 -5.58 0 -5.58 -13.4 0 -13.4 0 0 -3.73 0 -3.72 12.28 0 12.29 0 0 -5.95 0 -5.96 -12.29 0 -12.28 0 0 -3.72 0 -3.72 13.4 0 13.4 0 0 -5.58 0 -5.59 -17.05 0c-16.08,0 -17.12,0.08 -18.98,1.57l0 0z"/>
  <path class="fil1" d="M293.77 49.81c10.57,24.71 12.06,27.24 15.85,26.27 1.05,-0.22 2.31,-0.89 2.83,-1.34 0.67,-0.67 17.2,-38.26 20.4,-46.52 0.59,-1.64 0.59,-1.64 -5.58,-1.64l-6.26 0 -5.73 13.55c-3.2,7.52 -6.03,13.85 -6.33,14.22 -0.29,0.3 -3.2,-5.73 -6.47,-13.4l-5.96 -14 -6.4 -0.22 -6.33 -0.22 9.98 23.3 0 0z"/>
  <path class="fil1" d="M125.09 60.67l0 15.04 5.59 0 5.58 0 0 -8.71 0 -8.63 -4.62 -5.29c-2.53,-2.9 -4.98,-5.8 -5.58,-6.4 -0.82,-0.89 -0.97,1.41 -0.97,13.99z"/>
 </g>
</svg>
